# xmcd
#
# Track frame offsets:
#	150
#	19164
#	36672
#	50949
#	77555
#	92843
#	109757
#	125055
#	138656
#	158495
#
# Disc length: 2399 seconds
#
# Revision: 1
# Processed by: cddbd v1.5.2PL0 Copyright (c) Steve Scherf et al.
# Submitted via: audiograbber 1.83.01
#
DISCID=8b095d0a
DTITLE=Human League - Travelogue
DYEAR=1900
DGENRE=New Romantic
TTITLE0=The Black Hit Of Space
TTITLE1=Only After Dark
TTITLE2=Life Kills
TTITLE3=Dreams Of Leaving
TTITLE4=Toyota City
TTITLE5=Crow and A Baby
TTITLE6=The Touchables
TTITLE7=Gordon's Gin
TTITLE8=Being Boiled
TTITLE9=W.X.J.L. Tonight
EXTD=
EXTT0=
EXTT1=
EXTT2=
EXTT3=
EXTT4=
EXTT5=
EXTT6=
EXTT7=
EXTT8=
EXTT9=
PLAYORDER=
